<svg width="134px" height="42px" viewBox="0 0 134 42" version="1.1" xmlns="http://www.w3.org/2000/svg" xmlns:xlink="http://www.w3.org/1999/xlink">
    <defs>
        <polygon id="path-1" points="0.212612633 0.0559190781 7.48448283 0.0559190781 7.48448283 10.2343499 0.212612633 10.2343499"></polygon>
    </defs>
    <g id="Page-1" stroke="none" stroke-width="1" fill="none" fill-rule="evenodd">
        <g id="logo">
            <path d="M59.9870366,11.0211095 C59.9582474,9.714734 59.2281121,9.2783556 58.1473037,9.2783556 C56.8039241,9.2783556 56.2198158,9.8596185 56.2198158,10.4981453 C56.2198158,11.2536146 56.7161691,11.5737405 57.5923315,11.8348776 C59.1986292,12.2998879 62.1479596,12.880116 64.2800934,13.7808148 C66.9377166,14.884352 68.1055862,16.7723354 68.1055862,19.2995355 C68.1055862,24.4401766 63.9006312,26.5892972 57.9426577,26.5892972 C52.8611934,26.5892972 48.1886743,25.0214396 48.1886743,19.5606727 L56.1903329,19.5606727 C56.1903329,20.1409007 56.3075708,20.7225086 56.6284141,21.158542 C56.950298,21.5638738 57.4757873,21.8260458 58.2641947,21.8260458 C59.4910301,21.8260458 60.2790907,21.0419445 60.2790907,20.1126137 C60.2790907,19.3281675 59.6661933,18.9214559 58.8777859,18.6892957 L52.9489484,16.9461968 C49.707217,15.9875442 48.5688303,14.041607 48.5688303,11.3412353 C48.5688303,6.9840055 52.1019221,4.51510415 58.2641947,4.51510415 C63.5208221,4.51510415 67.4635528,6.14195044 67.4635528,11.0211095 L59.9870366,11.0211095 Z" id="Fill-1158" fill="#B3252B" fill-rule="nonzero"></path>
            <polygon id="Fill-1160" fill="#B3252B" fill-rule="nonzero" points="73.7095915 10.7020875 68.5108894 10.7020875 68.5108894 5.06711421 87.2606254 5.06711421 87.2606254 10.7020875 82.0619232 10.7020875 82.0619232 26.0374251 73.7095915 26.0374251"></polygon>
            <path d="M98.6088358,21.1291167 C99.8939433,21.1291167 100.857861,20.4026243 100.857861,15.5524421 C100.857861,10.8181676 99.9529091,9.9757676 98.6088358,9.9757676 C97.2654562,9.9757676 96.3601578,10.8181676 96.3601578,15.5524421 C96.3601578,20.4026243 97.3237283,21.1291167 98.6088358,21.1291167 M98.6088358,4.51500066 C105.880706,4.51500066 109.502246,9.0174599 109.502246,15.5524421 C109.502246,22.0867344 105.880706,26.5895386 98.6088358,26.5895386 C91.3369656,26.5895386 87.7154251,22.0867344 87.7154251,15.5524421 C87.7154251,9.0174599 91.3369656,4.51500066 98.6088358,4.51500066" id="Fill-1162" fill="#B3252B" fill-rule="nonzero"></path>
            <path d="M120.296213,14.2160548 C122.456789,14.2160548 123.275026,13.4326435 123.275026,11.9506817 C123.275026,10.4694099 122.57368,9.8305381 120.763083,9.8305381 L119.886227,9.8305381 L119.886227,14.2160548 L120.296213,14.2160548 Z M111.534589,5.06728669 L123.800863,5.06728669 C128.882327,5.06728669 131.277032,8.0008535 131.277032,11.9506817 C131.277032,16.1330151 128.531307,18.9796512 122.631952,18.9796512 L119.886227,18.9796512 L119.886227,26.0379425 L111.534589,26.0379425 L111.534589,5.06728669 Z" id="Fill-1164" fill="#B3252B" fill-rule="nonzero"></path>
            <polygon id="Fill-1166" fill="#1A1919" fill-rule="nonzero" points="51.8955071 38.7269642 51.8955071 29.7461931 48.4647383 29.7461931 48.4647383 28.548481 56.7289682 28.548481 56.7289682 29.7461931 53.2985462 29.7461931 53.2985462 38.7269642"></polygon>
            <polygon id="Fill-1168" fill="#1A1919" fill-rule="nonzero" points="60.5606697 28.548205 60.5606697 32.9188883 65.4225731 32.9188883 65.4225731 28.548205 66.8401802 28.548205 66.8401802 38.7270332 65.4225731 38.7270332 65.4225731 34.1310889 60.5606697 34.1310889 60.5606697 38.7270332 59.1423689 38.7270332 59.1423689 28.548205"></polygon>
            <polygon id="Fill-1170" fill="#1A1919" fill-rule="nonzero" points="70.1692157 28.548205 76.5909378 28.548205 76.5909378 29.746952 71.586476 29.746952 71.586476 32.9188883 76.3495249 32.9188883 76.3495249 34.1028019 71.586476 34.1028019 71.586476 37.4862006 76.7040134 37.4862006 76.7040134 38.7270332 70.1692157 38.7270332"></polygon>
            <g id="Group-1174" transform="translate(84.813868, 28.493079)">
                <g id="Fill-1172-Clipped">
                    <mask id="mask-2" fill="white">
                        <use xlink:href="#path-1"></use>
                    </mask>
                    <g id="path-1"></g>
                    <path d="M1.58720942,9.09188426 L4.01174424,9.09188426 C5.13105381,9.09188426 6.02455907,8.49992747 6.02455907,7.3298124 C6.02455907,6.31424084 5.31592893,5.56739559 4.06793518,5.56739559 L1.58720942,5.56739559 L1.58720942,9.09188426 Z M1.58720942,4.35588495 L3.57296934,4.35588495 C4.05440773,4.35588495 5.69781918,4.35588495 5.69781918,2.74835659 C5.69781918,1.2105108 4.40889623,1.2105108 3.62916028,1.2105108 L1.58720942,1.2105108 L1.58720942,4.35588495 Z M0.212612633,0.0559190781 L3.86953262,0.0559190781 C5.11683265,0.0559190781 5.81124162,0.18252056 6.45050023,0.80241937 C6.88892828,1.22568918 7.17265782,1.81730101 7.17265782,2.62106518 C7.17265782,4.29862106 5.93923209,4.73603436 5.44322568,4.91886483 C6.03878023,5.08824175 7.48448283,5.51082163 7.48448283,7.45675885 C7.48448283,8.83833633 6.59097757,9.54344104 6.25071024,9.76870199 C5.5420801,10.2344023 4.74881671,10.2344023 3.94063843,10.2344023 L0.212612633,10.2344023 L0.212612633,0.0559190781 Z" id="Fill-1172" fill="#1A1919" fill-rule="nonzero" mask="url(#mask-2)"></path>
                </g>
            </g>
            <polygon id="Fill-1175" fill="#1A1919" fill-rule="nonzero" points="95.3129946 28.548205 96.7167274 28.548205 96.7167274 37.4724021 101.479083 37.4724021 101.479083 38.7270332 95.3129946 38.7270332"></polygon>
            <polygon id="Fill-1177" fill="#1A1919" fill-rule="nonzero" points="103.947148 28.548205 110.36887 28.548205 110.36887 29.746952 105.365102 29.746952 105.365102 32.9188883 110.127457 32.9188883 110.127457 34.1028019 105.365102 34.1028019 105.365102 37.4862006 110.481946 37.4862006 110.481946 38.7270332 103.947148 38.7270332"></polygon>
            <polygon id="Fill-1179" fill="#1A1919" fill-rule="nonzero" points="113.266935 28.548205 119.688657 28.548205 119.688657 29.746952 114.684195 29.746952 114.684195 32.9188883 119.447244 32.9188883 119.447244 34.1028019 114.684195 34.1028019 114.684195 37.4862006 119.801733 37.4862006 119.801733 38.7270332 113.266935 38.7270332"></polygon>
            <path d="M124.086569,37.5711306 L125.476081,37.5711306 C126.453526,37.5711306 127.474675,37.5142117 128.154862,37.0071158 C129.4587,36.0346646 129.501364,34.3709073 129.501364,33.7789505 C129.501364,33.3981112 129.472921,31.6639813 128.509004,30.6066692 C127.857258,29.887766 127.035553,29.7183891 125.786865,29.7183891 L124.086569,29.7183891 L124.086569,37.5711306 Z M122.668615,28.548274 L125.63182,28.548274 C127.006417,28.548274 128.622773,28.548274 129.756998,29.8743124 C130.66403,30.9305896 131.017478,32.3266556 131.017478,33.7220316 C131.017478,35.9211718 130.096918,37.2751522 129.317182,37.895051 C128.310601,38.7271021 127.04908,38.7271021 125.546493,38.7271021 L122.668615,38.7271021 L122.668615,28.548274 Z" id="Fill-1181" fill="#1A1919" fill-rule="nonzero"></path>
            <polygon id="Fill-1183" fill="#B3252B" fill-rule="nonzero" points="12.1119215 0 29.5599008 0 41.9121947 12.0461138 41.9715074 29.3398073 29.7999263 41.6836242 12.1119215 41.8619702 -3.55271368e-15 29.4581296 -3.55271368e-15 12.0461138"></polygon>
            <path d="M30.1497322,24.4981112 L30.1497322,17.5302002 C30.1497322,16.7505835 29.4182095,16.118611 28.5160328,16.118611 C27.6135092,16.118611 26.8823334,16.7505835 26.8823334,17.5302002 L26.8823334,24.3863432 L26.2631925,24.4543009 L26.2621519,24.3577112 C22.9420307,23.6498468 20.9687576,27.4841124 20.9687576,27.4841124 L20.4744855,27.225735 C22.4814038,23.357318 25.5469315,23.6357033 26.2548679,23.7588552 L26.2305879,21.7059794 C26.2305879,21.7039096 26.2312816,21.7032197 26.2312816,21.7021848 L26.2312816,9.82268818 C26.2312816,9.14621541 25.6794311,8.59737902 24.9992433,8.59737902 C24.3187086,8.59737902 23.767205,9.14621541 23.767205,9.82268818 L23.767205,19.7928136 C23.5046338,19.7824647 23.2274945,19.7721158 22.9399495,19.7631468 L22.9399495,8.53218098 C22.9399495,7.74359518 22.2979161,7.10506836 21.5049995,7.10506836 L21.4293846,7.10506836 C20.6368149,7.10506836 19.9944346,7.74359518 19.9944346,8.53218098 L19.9944346,19.7338249 C19.7245793,19.7379645 19.4561115,19.7441738 19.1907654,19.7531429 L19.1907654,10.1835197 C19.1907654,9.39493386 18.5480382,8.75640703 17.7558154,8.75640703 L17.7336165,8.75640703 C16.9410468,8.75640703 16.2983197,9.39493386 16.2983197,10.1835197 L16.2983197,20.013935 C16.0867365,20.0525709 15.8890277,20.0950014 15.7093554,20.1429513 L15.7093554,12.3516132 C15.7093554,11.7192957 15.1942718,11.2070254 14.5577881,11.2070254 C13.921998,11.2070254 13.4062208,11.7192957 13.4062208,12.3516132 L13.4062208,25.8707197 C13.3708413,26.3995482 12.9383098,34.1439713 17.8005601,35.4813935 L25.6208122,35.4813935 C25.6208122,35.4813935 30.6818118,33.163241 30.1497322,24.4981112" id="Fill-1185" fill="#FFFFFE" fill-rule="nonzero"></path>
            <path d="M132.349129,27.8966386 C132.769179,27.8966386 133.114827,28.0362449 133.386083,28.3154615 C133.65734,28.5946782 133.792966,28.9240999 133.792966,29.3037366 C133.792966,29.6907211 133.655197,30.0219797 133.379654,30.2975225 C133.104111,30.5730652 132.772852,30.7108345 132.385868,30.7108345 C131.996434,30.7108345 131.664563,30.5733714 131.390245,30.2984409 C131.115927,30.0235105 130.97877,29.6919457 130.97877,29.3037366 C130.97877,29.0306431 131.051328,28.779903 131.196448,28.5515086 C131.341567,28.3231143 131.523116,28.1568727 131.741101,28.0527787 C131.959086,27.9486848 132.16176,27.8966386 132.349129,27.8966386 Z M132.418933,28.1703431 C132.073586,28.1703431 131.793761,28.2842324 131.57945,28.5120144 C131.365139,28.7397964 131.257985,29.0037011 131.257985,29.3037366 C131.257985,29.6147937 131.368813,29.8811477 131.590472,30.1028066 C131.812131,30.3244654 132.078485,30.4352932 132.389542,30.4352932 C132.699374,30.4352932 132.965116,30.3244654 133.186775,30.1028066 C133.408434,29.8811477 133.519261,29.6147937 133.519261,29.3037366 C133.519261,29.0894255 133.463541,28.8919562 133.3521,28.7113226 C133.240658,28.530689 133.097378,28.395369 132.922255,28.3053583 C132.747132,28.2153477 132.57936,28.1703431 132.418933,28.1703431 Z M131.766818,30.0550461 L131.766818,28.5616118 L132.474041,28.5616118 C132.649164,28.5616118 132.776524,28.6023303 132.856125,28.6837685 C132.935726,28.7652067 132.975526,28.865319 132.975526,28.9841086 C132.975526,29.0992242 132.942156,29.1916827 132.875413,29.2614869 C132.80867,29.3312911 132.707946,29.3784388 132.573236,29.4029315 C132.634468,29.4261995 132.683146,29.4577334 132.719273,29.497534 C132.7554,29.5373346 132.81265,29.6233639 132.891027,29.7556244 L133.065537,30.0550461 L132.692637,30.0550461 L132.567725,29.8144066 C132.493022,29.6711244 132.427199,29.5734612 132.370254,29.5214143 C132.313308,29.4693673 132.238913,29.4433442 132.147065,29.4433442 L132.068077,29.4433442 L132.068077,30.0550461 L131.766818,30.0550461 Z M132.068077,29.2063786 L132.314227,29.2063786 C132.437915,29.2063786 132.525781,29.1901525 132.577828,29.1576997 C132.629875,29.1252468 132.655898,29.0722822 132.655898,28.9988041 C132.655898,28.9326739 132.630181,28.8830769 132.578747,28.8500118 C132.527312,28.8169467 132.449549,28.8004143 132.345455,28.8004143 L132.068077,28.8004143 L132.068077,29.2063786 Z" id="®" fill="#1A1919" fill-rule="nonzero"></path>
        </g>
    </g>
</svg>